<svg xmlns="http://www.w3.org/2000/svg" id="Ebene_1" viewBox="0 0 135.6 135.6"><style id="style3337">.st0{fill:#004B72;} .st1{fill:none;stroke:#FFFFFF;stroke-width:2;stroke-miterlimit:10;}</style><circle class="st0" cx="67.8" cy="67.8" r="67.8" id="circle3339"/><path class="st1" d="M53.064 34.678c-3.6.8 4.1 21 4.1 21s-8.8-4.5-17.9-2.6c-4.9 1-11.7 14.6-7.9 18.5 3.7 3.9 22.4-2.6 24.3-1.2 1.9 1.3 5.6 8.1 9.9 8.9 4.3.7 12.7-2.8 12.7-2.8l-.1 4.5c-7.8.4-14.6 1.2-15 2.2-1 2.1 3.1 21.2 6 23.4 2.9 2.2 30.8-2.1 31.7-3.3 1-1.2 1.8-20.1 0-21.8-.6-.6-5.6-.9-11.8-.8l-.8-5.8s11 .2 13.1-1.7c3.9-3.6 4.8-38.4 1.9-40.3-2.7-2.1-25.3-3.9-50.2 1.8z" id="path3341" fill="none" stroke="#fff" stroke-width="2" stroke-miterlimit="10"/></svg>