<?xml version="1.0" encoding="UTF-8" standalone="no"?>
<!-- Generator: Adobe Illustrator 21.0.0, SVG Export Plug-In . SVG Version: 6.00 Build 0)  -->

<svg
   xmlns:dc="http://purl.org/dc/elements/1.1/"
   xmlns:cc="http://creativecommons.org/ns#"
   xmlns:rdf="http://www.w3.org/1999/02/22-rdf-syntax-ns#"
   xmlns:svg="http://www.w3.org/2000/svg"
   xmlns="http://www.w3.org/2000/svg"
   xmlns:sodipodi="http://sodipodi.sourceforge.net/DTD/sodipodi-0.dtd"
   xmlns:inkscape="http://www.inkscape.org/namespaces/inkscape"
   version="1.1"
   id="Ebene_1"
   x="0px"
   y="0px"
   viewBox="0 0 135.6 135.6"
   style="enable-background:new 0 0 135.6 135.6;"
   xml:space="preserve"
   inkscape:version="0.91 r13725"
   sodipodi:docname="average.svg"><metadata
     id="metadata3347"><rdf:RDF><cc:Work
         rdf:about=""><dc:format>image/svg+xml</dc:format><dc:type
           rdf:resource="http://purl.org/dc/dcmitype/StillImage" /><dc:title></dc:title></cc:Work></rdf:RDF></metadata><defs
     id="defs3345" /><sodipodi:namedview
     pagecolor="#ffffff"
     bordercolor="#666666"
     borderopacity="1"
     objecttolerance="10"
     gridtolerance="10"
     guidetolerance="10"
     inkscape:pageopacity="0"
     inkscape:pageshadow="2"
     inkscape:window-width="1600"
     inkscape:window-height="837"
     id="namedview3343"
     showgrid="false"
     inkscape:zoom="4.9262535"
     inkscape:cx="67.800003"
     inkscape:cy="67.800003"
     inkscape:window-x="-8"
     inkscape:window-y="-8"
     inkscape:window-maximized="1"
     inkscape:current-layer="Ebene_1" /><style
     type="text/css"
     id="style3337">
	.st0{fill:#004B72;}
	.st1{fill:none;stroke:#FFFFFF;stroke-width:2;stroke-miterlimit:10;}
</style><circle
     class="st0"
     cx="67.8"
     cy="67.8"
     r="67.8"
     id="circle3339" /><path
     class="st1"
     d="m 53.063537,34.677685 c -3.6,0.8 4.1,21 4.1,21 0,0 -8.8,-4.5 -17.9,-2.6 -4.9,1 -11.7,14.6 -7.9,18.5 3.7,3.9 22.4,-2.6 24.3,-1.2 1.9,1.3 5.6,8.1 9.9,8.9 4.3,0.7 12.7,-2.8 12.7,-2.8 l -0.1,4.5 c -7.8,0.4 -14.6,1.2 -15,2.2 -1,2.1 3.1,21.200005 6,23.400005 2.9,2.2 30.799999,-2.1 31.700003,-3.3 1,-1.2 1.8,-20.100005 0,-21.800005 -0.6,-0.6 -5.600003,-0.9 -11.800003,-0.8 l -0.8,-5.8 c 0,0 10.999998,0.2 13.100003,-1.7 3.9,-3.6 4.8,-38.4 1.9,-40.3 -2.7,-2.1 -25.300003,-3.9 -50.200003,1.8 z"
     id="path3341"
     inkscape:connector-curvature="0"
     style="fill:none;stroke:#ffffff;stroke-width:2;stroke-miterlimit:10" /></svg>