<svg id="Ebene_1" xmlns="http://www.w3.org/2000/svg" viewBox="0 0 135.6 135.6"><style>.st0{fill:#004B72;} .st1{fill:none;stroke:#FFFFFF;stroke-width:2;stroke-miterlimit:10;}</style><circle class="st0" cx="67.8" cy="67.8" r="67.8"/><path class="st1" d="M35.5 85.4c.8 3.6 21-4.1 21-4.1s-4.5 8.8-2.6 17.9c1 4.9 14.6 11.7 18.5 7.9 3.9-3.7-2.6-22.4-1.2-24.3 1.3-1.9 8.1-5.6 8.9-9.9.7-4.3-2.8-12.7-2.8-12.7l4.5.1c.4 7.8 1.2 14.6 2.2 15 2.1 1 21.2-3.1 23.4-6s-2.1-30.8-3.3-31.7c-1.2-1-20.1-1.8-21.8 0-.6.6-.9 5.6-.8 11.8l-5.8.8s.2-11-1.7-13.1c-3.6-3.9-38.4-4.8-40.3-1.9-2.1 2.7-3.9 25.3 1.8 50.2z"/></svg>