<?xml version="1.0" encoding="UTF-8" standalone="no"?>
<!-- Generator: Adobe Illustrator 21.0.0, SVG Export Plug-In . SVG Version: 6.00 Build 0)  -->

<svg
   xmlns:dc="http://purl.org/dc/elements/1.1/"
   xmlns:cc="http://creativecommons.org/ns#"
   xmlns:rdf="http://www.w3.org/1999/02/22-rdf-syntax-ns#"
   xmlns:svg="http://www.w3.org/2000/svg"
   xmlns="http://www.w3.org/2000/svg"
   xmlns:sodipodi="http://sodipodi.sourceforge.net/DTD/sodipodi-0.dtd"
   xmlns:inkscape="http://www.inkscape.org/namespaces/inkscape"
   version="1.1"
   id="Ebene_1"
   x="0px"
   y="0px"
   viewBox="0 0 135.6 135.6"
   style="enable-background:new 0 0 135.6 135.6;"
   xml:space="preserve"
   inkscape:version="0.91 r13725"
   sodipodi:docname="good.svg"><metadata
     id="metadata3347"><rdf:RDF><cc:Work
         rdf:about=""><dc:format>image/svg+xml</dc:format><dc:type
           rdf:resource="http://purl.org/dc/dcmitype/StillImage" /><dc:title></dc:title></cc:Work></rdf:RDF></metadata><defs
     id="defs3345" /><sodipodi:namedview
     pagecolor="#ffffff"
     bordercolor="#666666"
     borderopacity="1"
     objecttolerance="10"
     gridtolerance="10"
     guidetolerance="10"
     inkscape:pageopacity="0"
     inkscape:pageshadow="2"
     inkscape:window-width="1600"
     inkscape:window-height="837"
     id="namedview3343"
     showgrid="false"
     inkscape:zoom="4.9262535"
     inkscape:cx="67.800003"
     inkscape:cy="67.800003"
     inkscape:window-x="-8"
     inkscape:window-y="-8"
     inkscape:window-maximized="1"
     inkscape:current-layer="Ebene_1" /><style
     type="text/css"
     id="style3337">
	.st0{fill:#004B72;}
	.st1{fill:none;stroke:#FFFFFF;stroke-width:2;stroke-miterlimit:10;}
</style><circle
     class="st0"
     cx="68.205994"
     cy="68.408981"
     r="67.800003"
     id="circle3339"
     style="fill:#004b72" /><path
     class="st1"
     d="m 101.14693,51.835235 c -0.8,-3.6 -20.999997,4.1 -20.999997,4.1 0,0 4.5,-8.8 2.6,-17.899999 -1,-4.9 -14.6,-11.7 -18.5,-7.9 -3.9,3.7 2.6,22.399999 1.2,24.299999 -1.3,1.9 -8.1,5.6 -8.9,9.9 -0.7,4.3 2.8,12.7 2.8,12.7 l -4.5,-0.1 c -0.4,-7.8 -1.2,-14.6 -2.2,-15 -2.1,-1 -21.200005,3.1 -23.400005,6 -2.2,2.9 2.1,30.800002 3.3,31.700002 1.2,1.000003 20.100005,1.800003 21.800005,0 0.6,-0.6 0.9,-5.600002 0.8,-11.800002 l 5.8,-0.8 c 0,0 -0.2,11.000002 1.7,13.100005 3.6,3.9 38.399997,4.8 40.299997,1.9 2.1,-2.700003 3.9,-25.300005 -1.8,-50.200005 z"
     id="path3341"
     inkscape:connector-curvature="0"
     style="fill:none;stroke:#ffffff;stroke-width:2;stroke-miterlimit:10" /></svg>