<?xml version="1.0" encoding="utf-8"?>
<!-- Generator: Adobe Illustrator 21.1.0, SVG Export Plug-In . SVG Version: 6.00 Build 0)  -->
<svg version="1.1" id="Ebene_1" xmlns="http://www.w3.org/2000/svg" xmlns:xlink="http://www.w3.org/1999/xlink" x="0px" y="0px"
	 viewBox="0 0 184.6 77.8" style="enable-background:new 0 0 184.6 77.8;" xml:space="preserve">
<style type="text/css">
	.st0{fill:#3D3D3F;}
	.st1{fill:#0093BC;}
</style>
<title>logo_rgb</title>
<path class="st0" d="M31.6,42.7v-2.8h2.5v-4.6c0-1.2,0.2-2.3,0.7-3.4c0.4-1,1.1-1.8,2-2.5c0.9-0.7,1.9-1.2,3-1.6
	c1.2-0.4,2.5-0.6,3.8-0.6v2.7c-1.7,0-3.2,0.6-4.5,1.5c-1.2,1-1.9,2.5-1.8,4v4.5H42v2.8h-4.6v10.5h-3.3V42.7H31.6L31.6,42.7z"/>
<path class="st0" d="M49.3,53.2H46V27.2h3.3V53.2z"/>
<path class="st0" d="M52.8,46.7c0-0.9,0.2-1.8,0.6-2.6c0.4-0.8,1-1.6,1.7-2.2c0.7-0.6,1.6-1.1,2.5-1.5c1-0.4,2-0.5,3.1-0.5
	c2.1,0,4.1,0.7,5.7,2c0.7,0.6,1.3,1.4,1.7,2.2c0.8,1.7,0.8,3.6,0,5.3c-0.4,0.8-1,1.5-1.7,2.2c-0.7,0.6-1.6,1.1-2.5,1.5
	c-1,0.4-2.1,0.5-3.1,0.5c-2.1,0-4.1-0.7-5.6-2c-0.7-0.6-1.3-1.4-1.7-2.2C53,48.5,52.8,47.6,52.8,46.7z M56.1,46.7
	c0,0.5,0.1,1.1,0.4,1.6c0.5,1,1.3,1.7,2.4,2.1c1.1,0.4,2.4,0.4,3.6,0c0.5-0.2,1-0.5,1.5-0.9c0.4-0.4,0.8-0.8,1-1.3
	c0.5-1,0.5-2.1,0-3.1c-0.5-1-1.3-1.7-2.5-2.2c-1.1-0.4-2.4-0.4-3.6,0c-0.5,0.2-1,0.5-1.4,0.9c-0.4,0.4-0.7,0.8-1,1.3
	C56.2,45.6,56.1,46.2,56.1,46.7L56.1,46.7z"/>
<path class="st0" d="M88,46.7c0,0.9-0.2,1.8-0.6,2.6c-0.4,0.8-1,1.6-1.7,2.2c-0.7,0.6-1.6,1.1-2.5,1.5c-1,0.4-2.1,0.5-3.1,0.5
	c-0.7,0-1.4-0.1-2.1-0.2c-0.5-0.1-1.1-0.3-1.6-0.5c-0.4-0.2-0.7-0.4-1-0.6c-0.2-0.1-0.3-0.2-0.4-0.4c0.1,0.1,0.1,0.2,0.2,0.4
	s0.1,0.3,0.2,0.4v9.3h-3.3V40.2h2.7c0,0.3,0,0.5,0.1,0.8c0,0.3,0.1,0.5,0.1,0.8c0.1-0.2,0.2-0.3,0.4-0.4c0.3-0.2,0.7-0.5,1.1-0.6
	c0.5-0.2,1-0.4,1.6-0.6c0.6-0.2,1.3-0.3,2-0.3c1.1,0,2.1,0.2,3.1,0.5c0.9,0.3,1.8,0.8,2.5,1.5c0.7,0.6,1.3,1.4,1.7,2.2
	C87.8,44.9,88,45.8,88,46.7z M84.7,46.7c0-1.1-0.4-2.1-1.3-2.9c-1.9-1.5-4.8-1.5-6.7,0c-0.9,0.8-1.4,1.8-1.3,2.9
	c0,1.1,0.4,2.1,1.3,2.9c1.9,1.6,4.8,1.6,6.7,0C84.3,48.8,84.7,47.8,84.7,46.7L84.7,46.7z"/>
<path class="st1" d="M100.7,41.3c-0.3,0.4-0.6,0.7-0.9,1.1c-0.3,0.3-0.6,0.7-0.9,1.1c-0.2-0.2-0.5-0.3-0.8-0.5
	c-0.5-0.2-1-0.3-1.5-0.3c-0.5,0-0.9,0.1-1.3,0.3c-0.3,0.2-0.4,0.6-0.3,0.9c0.1,0.3,0.3,0.5,0.6,0.7c0.4,0.2,0.8,0.4,1.2,0.5
	c0.5,0.2,1,0.4,1.5,0.6c0.5,0.2,1,0.5,1.5,0.8c1,0.7,1.6,1.8,1.5,3c0,0.4-0.1,0.8-0.2,1.2c-0.2,0.5-0.4,0.9-0.8,1.4
	c-0.4,0.5-0.9,0.9-1.5,1.1c-0.8,0.3-1.7,0.5-2.6,0.5c-1,0-1.9-0.1-2.8-0.4c-0.8-0.2-1.5-0.7-2.1-1.2c0.3-0.3,0.7-0.7,1-1.1
	s0.6-0.7,1-1.1c0.5,0.3,1,0.5,1.5,0.7c0.5,0.2,1,0.2,1.5,0.2h0.3c0.2,0,0.4-0.1,0.6-0.1c0.2-0.1,0.4-0.2,0.6-0.4
	c0.2-0.2,0.3-0.5,0.3-0.7c0.1-0.4-0.1-0.7-0.4-1c-0.3-0.3-0.7-0.4-1.1-0.6c-0.5-0.2-1-0.3-1.5-0.5c-0.5-0.1-1.1-0.4-1.6-0.6
	c-0.5-0.3-0.9-0.7-1.2-1.2c-0.3-0.6-0.5-1.3-0.5-1.9c0-0.6,0.1-1.3,0.5-1.8c0.3-0.5,0.7-0.9,1.2-1.2c0.5-0.3,1-0.5,1.5-0.7
	c0.5-0.1,1-0.2,1.5-0.2c0.3,0,0.6,0,1,0.1c0.4,0,0.8,0.1,1.2,0.2c0.4,0.1,0.8,0.3,1.2,0.5C100,40.8,100.4,41,100.7,41.3z"/>
<path class="st1" d="M120.8,46.7c0,0.9-0.2,1.8-0.6,2.6c-0.4,0.8-1,1.6-1.7,2.2c-0.7,0.6-1.6,1.1-2.5,1.5c-1,0.4-2.1,0.5-3.1,0.5
	c-0.7,0-1.4-0.1-2.1-0.2c-0.5-0.1-1.1-0.3-1.6-0.5c-0.4-0.2-0.7-0.4-1-0.6c-0.2-0.1-0.3-0.2-0.4-0.4c0.1,0.1,0.1,0.2,0.2,0.4
	s0.1,0.3,0.2,0.4v9.3H105V40.2h2.7c0,0.3,0,0.5,0.1,0.8c0,0.3,0.1,0.5,0.1,0.8c0.1-0.2,0.2-0.3,0.4-0.4c0.3-0.2,0.7-0.5,1.1-0.6
	c0.5-0.2,1-0.4,1.6-0.6c0.6-0.2,1.3-0.3,2-0.3c1.1,0,2.1,0.2,3.1,0.5c0.9,0.3,1.8,0.8,2.5,1.5c0.7,0.6,1.3,1.3,1.6,2.1
	C120.6,44.9,120.8,45.8,120.8,46.7z M117.5,46.7c0-1.1-0.4-2.1-1.3-2.9c-1.9-1.5-4.8-1.5-6.7,0c-0.9,0.8-1.4,1.8-1.3,2.9
	c0,1.1,0.4,2.1,1.3,2.9c1.9,1.6,4.8,1.6,6.7,0C117.1,48.8,117.5,47.8,117.5,46.7L117.5,46.7z"/>
<path class="st1" d="M146.1,31.7h3.3v8.2h3.9v2.8h-3.9v10.5h-3.3V42.7h-3.3v-2.8h3.3V31.7z"/>
<path class="st1" d="M123.9,20.1l-2.4-1.6c-7.8,2.3-14.3,7.1-18.2,13.4l3.3,1.6c3.5-5.5,9.1-9.7,15.9-11.8L123.9,20.1z"/>
<path class="st1" d="M127,17.3l2.3,1.9l-1.7,1.3c7.1-1,14.4,0.3,20.4,3.7l2.1-2.8C143.3,17.6,135,16.1,127,17.3z"/>
<path class="st1" d="M123,27.9l1.2-1.9c-5.6,1.7-10.2,5.1-13,9.6l3.3,1.6c2.4-3.8,6.4-6.7,11.1-8.1L123,27.9z"/>
<path class="st1" d="M128.7,24.9l-0.2,1.8l2.2,1.3c4.4-0.3,8.7,0.6,12.4,2.7l2.1-2.8C140.3,25.2,134.5,24.1,128.7,24.9z"/>
<path class="st1" d="M125.7,36.2l2.5-1.9l-1.2-1c-3.5,1-6.4,3.2-8.2,6l3.3,1.6c1.2-1.8,3.1-3.3,5.3-4.2L125.7,36.2z"/>
<path class="st1" d="M131.7,32.3l0.4,0.9l-2.3,1.7l0.9,0.9c2.7-0.3,5.4,0.1,7.7,1.3l2.1-2.8C137.8,32.9,134.8,32.2,131.7,32.3z"/>
<path class="st1" d="M139.7,44c-0.4-0.8-1-1.6-1.7-2.2c-1.5-1.3-3.5-2-5.6-2l0.9,1.9l-1.9,2.7l3.2,1.2l-0.2,2.6l1.8,1.9l-1.8,2.7
	l0.4,0.2c1.2-0.3,2.4-0.9,3.3-1.7c0.7-0.6,1.3-1.4,1.7-2.2C140.5,47.6,140.5,45.7,139.7,44z"/>
<path class="st1" d="M133.4,53l1.1-2.5l-1.9-1.7l-0.3-2.4l-4.4-0.8l2.4-3.4l-1.1-1.8c-0.9,0.3-1.7,0.8-2.4,1.4
	c-0.7,0.6-1.3,1.4-1.7,2.2c-0.8,1.7-0.8,3.6,0,5.3c0.4,0.8,1,1.5,1.7,2.2c1.5,1.3,3.5,2,5.6,2c0.6,0,1.2-0.1,1.7-0.2L133.4,53z"/>
</svg>
