<svg id="Ebene_1" xmlns="http://www.w3.org/2000/svg" viewBox="0 0 184.6 77.8"><style>.st0{fill:#3D3D3F;} .st1{fill:#0093BC;}</style><title>logo_rgb</title><path class="st0" d="M31.6 42.7v-2.8h2.5v-4.6c0-1.2.2-2.3.7-3.4.4-1 1.1-1.8 2-2.5.9-.7 1.9-1.2 3-1.6 1.2-.4 2.5-.6 3.8-.6v2.7c-1.7 0-3.2.6-4.5 1.5-1.2 1-1.9 2.5-1.8 4v4.5H42v2.8h-4.6v10.5h-3.3V42.7h-2.5zM49.3 53.2H46v-26h3.3v26zM52.8 46.7c0-.9.2-1.8.6-2.6.4-.8 1-1.6 1.7-2.2.7-.6 1.6-1.1 2.5-1.5 1-.4 2-.5 3.1-.5 2.1 0 4.1.7 5.7 2 .7.6 1.3 1.4 1.7 2.2.8 1.7.8 3.6 0 5.3-.4.8-1 1.5-1.7 2.2-.7.6-1.6 1.1-2.5 1.5-1 .4-2.1.5-3.1.5-2.1 0-4.1-.7-5.6-2-.7-.6-1.3-1.4-1.7-2.2-.5-.9-.7-1.8-.7-2.7zm3.3 0c0 .5.1 1.1.4 1.6.5 1 1.3 1.7 2.4 2.1 1.1.4 2.4.4 3.6 0 .5-.2 1-.5 1.5-.9.4-.4.8-.8 1-1.3.5-1 .5-2.1 0-3.1s-1.3-1.7-2.5-2.2c-1.1-.4-2.4-.4-3.6 0-.5.2-1 .5-1.4.9-.4.4-.7.8-1 1.3-.3.5-.4 1.1-.4 1.6zM88 46.7c0 .9-.2 1.8-.6 2.6-.4.8-1 1.6-1.7 2.2-.7.6-1.6 1.1-2.5 1.5-1 .4-2.1.5-3.1.5-.7 0-1.4-.1-2.1-.2-.5-.1-1.1-.3-1.6-.5-.4-.2-.7-.4-1-.6-.2-.1-.3-.2-.4-.4.1.1.1.2.2.4s.1.3.2.4v9.3h-3.3V40.2h2.7c0 .3 0 .5.1.8 0 .3.1.5.1.8.1-.2.2-.3.4-.4.3-.2.7-.5 1.1-.6.5-.2 1-.4 1.6-.6.6-.2 1.3-.3 2-.3 1.1 0 2.1.2 3.1.5.9.3 1.8.8 2.5 1.5.7.6 1.3 1.4 1.7 2.2.4.8.6 1.7.6 2.6zm-3.3 0c0-1.1-.4-2.1-1.3-2.9-1.9-1.5-4.8-1.5-6.7 0-.9.8-1.4 1.8-1.3 2.9 0 1.1.4 2.1 1.3 2.9 1.9 1.6 4.8 1.6 6.7 0 .9-.8 1.3-1.8 1.3-2.9z"/><path class="st1" d="M100.7 41.3c-.3.4-.6.7-.9 1.1-.3.3-.6.7-.9 1.1-.2-.2-.5-.3-.8-.5-.5-.2-1-.3-1.5-.3s-.9.1-1.3.3c-.3.2-.4.6-.3.9.1.3.3.5.6.7.4.2.8.4 1.2.5l1.5.6c.5.2 1 .5 1.5.8 1 .7 1.6 1.8 1.5 3 0 .4-.1.8-.2 1.2-.2.5-.4.9-.8 1.4-.4.5-.9.9-1.5 1.1-.8.3-1.7.5-2.6.5-1 0-1.9-.1-2.8-.4-.8-.2-1.5-.7-2.1-1.2.3-.3.7-.7 1-1.1s.6-.7 1-1.1c.5.3 1 .5 1.5.7.5.2 1 .2 1.5.2h.3c.2 0 .4-.1.6-.1.2-.1.4-.2.6-.4.2-.2.3-.5.3-.7.1-.4-.1-.7-.4-1-.3-.3-.7-.4-1.1-.6-.5-.2-1-.3-1.5-.5-.5-.1-1.1-.4-1.6-.6-.5-.3-.9-.7-1.2-1.2-.3-.6-.5-1.3-.5-1.9 0-.6.1-1.3.5-1.8.3-.5.7-.9 1.2-1.2.5-.3 1-.5 1.5-.7.5-.1 1-.2 1.5-.2.3 0 .6 0 1 .1.4 0 .8.1 1.2.2.4.1.8.3 1.2.5.1.1.5.3.8.6zM120.8 46.7c0 .9-.2 1.8-.6 2.6-.4.8-1 1.6-1.7 2.2-.7.6-1.6 1.1-2.5 1.5-1 .4-2.1.5-3.1.5-.7 0-1.4-.1-2.1-.2-.5-.1-1.1-.3-1.6-.5-.4-.2-.7-.4-1-.6-.2-.1-.3-.2-.4-.4.1.1.1.2.2.4s.1.3.2.4v9.3H105V40.2h2.7c0 .3 0 .5.1.8 0 .3.1.5.1.8.1-.2.2-.3.4-.4.3-.2.7-.5 1.1-.6.5-.2 1-.4 1.6-.6.6-.2 1.3-.3 2-.3 1.1 0 2.1.2 3.1.5.9.3 1.8.8 2.5 1.5.7.6 1.3 1.3 1.6 2.1.4.9.6 1.8.6 2.7zm-3.3 0c0-1.1-.4-2.1-1.3-2.9-1.9-1.5-4.8-1.5-6.7 0-.9.8-1.4 1.8-1.3 2.9 0 1.1.4 2.1 1.3 2.9 1.9 1.6 4.8 1.6 6.7 0 .9-.8 1.3-1.8 1.3-2.9zM146.1 31.7h3.3v8.2h3.9v2.8h-3.9v10.5h-3.3V42.7h-3.3v-2.8h3.3v-8.2zM123.9 20.1l-2.4-1.6c-7.8 2.3-14.3 7.1-18.2 13.4l3.3 1.6c3.5-5.5 9.1-9.7 15.9-11.8l1.4-1.6zM127 17.3l2.3 1.9-1.7 1.3c7.1-1 14.4.3 20.4 3.7l2.1-2.8c-6.8-3.8-15.1-5.3-23.1-4.1zM123 27.9l1.2-1.9c-5.6 1.7-10.2 5.1-13 9.6l3.3 1.6c2.4-3.8 6.4-6.7 11.1-8.1l-2.6-1.2zM128.7 24.9l-.2 1.8 2.2 1.3c4.4-.3 8.7.6 12.4 2.7l2.1-2.8c-4.9-2.7-10.7-3.8-16.5-3zM125.7 36.2l2.5-1.9-1.2-1c-3.5 1-6.4 3.2-8.2 6l3.3 1.6c1.2-1.8 3.1-3.3 5.3-4.2l-1.7-.5zM131.7 32.3l.4.9-2.3 1.7.9.9c2.7-.3 5.4.1 7.7 1.3l2.1-2.8c-2.7-1.4-5.7-2.1-8.8-2zM139.7 44c-.4-.8-1-1.6-1.7-2.2-1.5-1.3-3.5-2-5.6-2l.9 1.9-1.9 2.7 3.2 1.2-.2 2.6 1.8 1.9-1.8 2.7.4.2c1.2-.3 2.4-.9 3.3-1.7.7-.6 1.3-1.4 1.7-2.2.7-1.5.7-3.4-.1-5.1z"/><path class="st1" d="M133.4 53l1.1-2.5-1.9-1.7-.3-2.4-4.4-.8 2.4-3.4-1.1-1.8c-.9.3-1.7.8-2.4 1.4-.7.6-1.3 1.4-1.7 2.2-.8 1.7-.8 3.6 0 5.3.4.8 1 1.5 1.7 2.2 1.5 1.3 3.5 2 5.6 2 .6 0 1.2-.1 1.7-.2l-.7-.3z"/></svg>