<svg id="Ebene_1" data-name="Ebene 1" xmlns="http://www.w3.org/2000/svg" viewBox="0 0 184.58 77.76"><defs><style>.cls-1{fill:#3d3d3f;}.cls-2{fill:#0093bc;}</style></defs><title>logo_rgb</title><path class="cls-1" d="M329.66,303.33v-4.86h3.84v-8a14.91,14.91,0,0,1,1.11-5.94,12.6,12.6,0,0,1,3-4.35,13,13,0,0,1,4.59-2.7,19.67,19.67,0,0,1,5.73-1v4.74a10.79,10.79,0,0,0-6.81,2.64,8.72,8.72,0,0,0-2.67,6.84v7.8h7v4.86h-7v18.18h-5V303.33h-3.84Z" transform="translate(-329.66 -258.75)"/><path class="cls-1" d="M356.48,321.51h-5v-45h5v45Z" transform="translate(-329.66 -258.75)"/><path class="cls-1" d="M361.82,310.23a11.41,11.41,0,0,1,.93-4.56,11.65,11.65,0,0,1,2.55-3.75,12.19,12.19,0,0,1,3.81-2.52,11.94,11.94,0,0,1,4.71-.93,12.25,12.25,0,0,1,8.58,3.45,11.67,11.67,0,0,1,2.55,3.75,11.72,11.72,0,0,1,0,9.15,12.1,12.1,0,0,1-2.55,3.75,11.85,11.85,0,0,1-3.84,2.55,12.16,12.16,0,0,1-4.74.93,12,12,0,0,1-8.52-3.48,12.08,12.08,0,0,1-2.55-3.75A11.34,11.34,0,0,1,361.82,310.23Zm5,0.06a6.8,6.8,0,0,0,.54,2.7,6.84,6.84,0,0,0,3.66,3.66,7,7,0,0,0,5.4,0,7.26,7.26,0,0,0,2.22-1.47,6.68,6.68,0,0,0,1.5-2.19,7,7,0,0,0,0-5.4,7.05,7.05,0,0,0-3.72-3.72,7,7,0,0,0-5.4,0,6.66,6.66,0,0,0-2.19,1.5,7.27,7.27,0,0,0-1.47,2.22A6.79,6.79,0,0,0,366.8,310.29Z" transform="translate(-329.66 -258.75)"/><path class="cls-1" d="M415.23,310.23a11.43,11.43,0,0,1-.93,4.56,12,12,0,0,1-2.55,3.78,11.84,11.84,0,0,1-3.84,2.55,12.16,12.16,0,0,1-4.74.93,11.28,11.28,0,0,1-3.21-.42,12.94,12.94,0,0,1-2.37-.93,7.71,7.71,0,0,1-1.5-1,1.45,1.45,0,0,1-.54-0.66c0.08,0.2.18,0.42,0.3,0.66s0.22,0.46.3,0.66v16.14h-5V299h4.14a11,11,0,0,0,.09,1.41q0.09,0.69.15,1.41a1.7,1.7,0,0,1,.6-0.72,9.05,9.05,0,0,1,1.62-1.11,15.14,15.14,0,0,1,2.4-1,9.07,9.07,0,0,1,3-.48,12.16,12.16,0,0,1,4.74.93,11.85,11.85,0,0,1,3.84,2.55,12.11,12.11,0,0,1,2.55,3.75A11.21,11.21,0,0,1,415.23,310.23Zm-5,0a6.71,6.71,0,0,0-2-5,7.57,7.57,0,0,0-10.14,0,6.71,6.71,0,0,0-2,5,6.83,6.83,0,0,0,2,5,7.4,7.4,0,0,0,10.14,0A6.83,6.83,0,0,0,410.19,310.23Z" transform="translate(-329.66 -258.75)"/><path class="cls-2" d="M434.41,301q-0.66,1-1.38,1.86t-1.38,1.86a7.23,7.23,0,0,0-1.17-.84,4.34,4.34,0,0,0-2.31-.54,2.72,2.72,0,0,0-1.92.57,1.69,1.69,0,0,0-.48,1.53,1.66,1.66,0,0,0,.9,1.17,14.22,14.22,0,0,0,1.83.87q1.05,0.42,2.25,1a10.53,10.53,0,0,1,2.22,1.35,6.12,6.12,0,0,1,2.34,5.13,7.92,7.92,0,0,1-.33,2,7.16,7.16,0,0,1-1.17,2.34,6.66,6.66,0,0,1-2.34,1.92,8.46,8.46,0,0,1-3.9.78,12.26,12.26,0,0,1-4.26-.75,8,8,0,0,1-3.24-2.07q0.78-.9,1.5-1.83t1.5-1.83a16.68,16.68,0,0,0,2.22,1.23,6,6,0,0,0,2.34.39l0.45,0a2.7,2.7,0,0,0,.87-0.24,2.61,2.61,0,0,0,.87-0.63,2,2,0,0,0,.45-1.26,1.91,1.91,0,0,0-.6-1.65,5.59,5.59,0,0,0-1.71-1q-1.05-.39-2.31-0.78a10.16,10.16,0,0,1-2.37-1.08,5.39,5.39,0,0,1-1.83-2,6.76,6.76,0,0,1-.72-3.36,6.22,6.22,0,0,1,.72-3.12,6.71,6.71,0,0,1,1.8-2.07,7.13,7.13,0,0,1,2.34-1.17,8.36,8.36,0,0,1,2.28-.36,11.07,11.07,0,0,1,1.47.12,9.93,9.93,0,0,1,1.77.42,10.65,10.65,0,0,1,1.77.78A6,6,0,0,1,434.41,301Z" transform="translate(-329.66 -258.75)"/><path class="cls-2" d="M465,310.23a11.43,11.43,0,0,1-.93,4.56,12,12,0,0,1-2.55,3.78,11.84,11.84,0,0,1-3.84,2.55,12.16,12.16,0,0,1-4.74.93,11.28,11.28,0,0,1-3.21-.42,12.94,12.94,0,0,1-2.37-.93,7.71,7.71,0,0,1-1.5-1,1.45,1.45,0,0,1-.54-0.66c0.08,0.2.18,0.42,0.3,0.66s0.22,0.46.3,0.66v16.14h-5V299h4.14a11,11,0,0,0,.09,1.41q0.09,0.69.15,1.41a1.7,1.7,0,0,1,.6-0.72,9.05,9.05,0,0,1,1.62-1.11,15.14,15.14,0,0,1,2.4-1,9.07,9.07,0,0,1,3-.48,12.16,12.16,0,0,1,4.74.93,11.85,11.85,0,0,1,3.84,2.55A12.11,12.11,0,0,1,464,305.7,11.21,11.21,0,0,1,465,310.23Zm-5,0a6.71,6.71,0,0,0-2-5,7.57,7.57,0,0,0-10.14,0,6.71,6.71,0,0,0-2,5,6.83,6.83,0,0,0,2,5,7.4,7.4,0,0,0,10.14,0A6.83,6.83,0,0,0,459.93,310.23Z" transform="translate(-329.66 -258.75)"/><path class="cls-2" d="M503.37,284.37h5v14.1h5.88v4.86h-5.88v18.18h-5V303.33h-5v-4.86h5v-14.1Z" transform="translate(-329.66 -258.75)"/><path class="cls-2" d="M469.71,264.4L466,261.69a49.37,49.37,0,0,0-27.6,23.1l5,2.68a43.71,43.71,0,0,1,24.14-20.32Z" transform="translate(-329.66 -258.75)"/><path class="cls-2" d="M474.36,259.41l3.48,3.33L475.26,265a43.69,43.69,0,0,1,31,6.43l3.11-4.75A49.35,49.35,0,0,0,474.36,259.41Z" transform="translate(-329.66 -258.75)"/><path class="cls-2" d="M468.27,277.88l1.76-3.3a35.9,35.9,0,0,0-19.79,16.59l5,2.69a30.25,30.25,0,0,1,16.86-14Z" transform="translate(-329.66 -258.75)"/><path class="cls-2" d="M477,272.67l-0.3,3.05,3.39,2.3a30.18,30.18,0,0,1,18.77,4.71l3.11-4.76A35.88,35.88,0,0,0,477,272.67Z" transform="translate(-329.66 -258.75)"/><path class="cls-2" d="M472.39,292.06l3.84-3.34L474.39,287a22.75,22.75,0,0,0-12.49,10.38l5,2.68a17.08,17.08,0,0,1,8-7.17Z" transform="translate(-329.66 -258.75)"/><path class="cls-2" d="M481.46,285.47l0.58,1.6-3.44,2.86,1.3,1.59a18.42,18.42,0,0,1,11.71,2.28l3.11-4.75A22.69,22.69,0,0,0,481.46,285.47Z" transform="translate(-329.66 -258.75)"/><path class="cls-2" d="M493.68,305.67a11.67,11.67,0,0,0-2.55-3.75,12.23,12.23,0,0,0-8.53-3.45l1.3,3.33L481,306.44l4.88,2.15-0.25,4.51,2.67,3.34-2.75,4.68,0.59,0.41a12,12,0,0,0,5-3,12.1,12.1,0,0,0,2.55-3.75A11.72,11.72,0,0,0,493.68,305.67Z" transform="translate(-329.66 -258.75)"/><path class="cls-2" d="M484.11,321.18l1.7-4.29-2.9-2.9-0.44-4.13-6.69-1.42,3.64-5.88-1.7-3.09a12.16,12.16,0,0,0-3.68,2.46,11.65,11.65,0,0,0-2.55,3.75,11.72,11.72,0,0,0,0,9.15,12.08,12.08,0,0,0,2.55,3.75,12,12,0,0,0,8.52,3.48,12.61,12.61,0,0,0,2.6-.27Z" transform="translate(-329.66 -258.75)"/></svg>