<?xml version="1.0" encoding="utf-8"?>
<!-- Generator: Adobe Illustrator 21.0.0, SVG Export Plug-In . SVG Version: 6.00 Build 0)  -->
<svg version="1.1" id="Ebene_1" xmlns="http://www.w3.org/2000/svg" xmlns:xlink="http://www.w3.org/1999/xlink" x="0px" y="0px"
	 viewBox="0 0 146.8 61.9" style="enable-background:new 0 0 146.8 61.9;" xml:space="preserve">
<style type="text/css">
	.st0{fill:#004B72;}
	.st1{fill:#FFFFFF;}
</style>
<g>
	<path class="st0" d="M0,35.5v-3.9h3.1v-6.3c0-1.8,0.3-3.4,0.9-4.7c0.6-1.4,1.4-2.5,2.4-3.5s2.2-1.7,3.7-2.1
		c1.4-0.5,2.9-0.8,4.6-0.8v3.8c-2.2,0.1-4,0.8-5.4,2.1S7,23,7,25.4v6.2h5.6v3.9H7v14.5h-4V35.5H0z"/>
	<path class="st0" d="M21.3,49.9h-4V14.1h4V49.9z"/>
	<path class="st0" d="M25.6,41c0-1.3,0.2-2.5,0.7-3.6c0.5-1.1,1.2-2.1,2-3c0.9-0.8,1.9-1.5,3-2c1.2-0.5,2.4-0.7,3.7-0.7
		s2.6,0.2,3.8,0.7c1.2,0.5,2.2,1.2,3.1,2c0.9,0.8,1.5,1.8,2,3c0.5,1.1,0.7,2.4,0.7,3.6c0,1.3-0.2,2.5-0.7,3.7c-0.5,1.1-1.2,2.1-2,3
		c-0.9,0.9-1.9,1.5-3.1,2c-1.2,0.5-2.4,0.7-3.8,0.7s-2.6-0.2-3.7-0.7c-1.2-0.5-2.2-1.2-3-2c-0.9-0.9-1.5-1.9-2-3
		C25.8,43.5,25.6,42.3,25.6,41z M29.5,41c0,0.8,0.1,1.5,0.4,2.1c0.3,0.7,0.7,1.2,1.2,1.7c0.5,0.5,1.1,0.9,1.7,1.2
		c0.7,0.3,1.4,0.4,2.1,0.4s1.5-0.1,2.1-0.4c0.7-0.3,1.3-0.7,1.8-1.2c0.5-0.5,0.9-1.1,1.2-1.7c0.3-0.7,0.4-1.4,0.4-2.1
		s-0.1-1.5-0.4-2.1c-0.3-0.7-0.7-1.3-1.2-1.8c-0.5-0.5-1.1-0.9-1.8-1.2c-0.7-0.3-1.4-0.4-2.1-0.4s-1.5,0.1-2.1,0.4
		c-0.7,0.3-1.2,0.7-1.7,1.2c-0.5,0.5-0.9,1.1-1.2,1.8C29.7,39.5,29.5,40.2,29.5,41z"/>
	<path class="st0" d="M68.1,41c0,1.3-0.2,2.5-0.7,3.6c-0.5,1.1-1.2,2.1-2,3c-0.9,0.9-1.9,1.5-3.1,2c-1.2,0.5-2.4,0.7-3.8,0.7
		c-1,0-1.8-0.1-2.6-0.3c-0.7-0.2-1.4-0.5-1.9-0.7c-0.5-0.3-0.9-0.5-1.2-0.8c-0.3-0.3-0.4-0.4-0.4-0.5c0.1,0.2,0.1,0.3,0.2,0.5
		c0.1,0.2,0.2,0.4,0.2,0.5v12.8h-4V32h3.3c0,0.4,0,0.8,0.1,1.1c0,0.4,0.1,0.7,0.1,1.1c0-0.1,0.2-0.3,0.5-0.6
		c0.3-0.3,0.7-0.6,1.3-0.9c0.5-0.3,1.2-0.6,1.9-0.8c0.7-0.3,1.5-0.4,2.4-0.4c1.3,0,2.6,0.2,3.8,0.7c1.2,0.5,2.2,1.2,3.1,2
		c0.9,0.9,1.5,1.9,2,3C67.8,38.5,68.1,39.7,68.1,41z M64.1,41c0-1.6-0.5-2.9-1.6-3.9c-1-1-2.4-1.6-4-1.6s-3,0.5-4,1.6
		c-1,1-1.6,2.3-1.6,3.9c0,1.6,0.5,2.9,1.6,3.9c1,1.1,2.4,1.6,4,1.6s3-0.5,4-1.6C63.6,43.8,64.1,42.5,64.1,41z"/>
	<path class="st1" d="M83.3,33.6c-0.4,0.5-0.7,1-1.1,1.5c-0.4,0.5-0.7,1-1.1,1.5c-0.2-0.2-0.5-0.4-0.9-0.7c-0.5-0.3-1.1-0.4-1.8-0.4
		c-0.7,0-1.2,0.2-1.5,0.5c-0.3,0.3-0.4,0.7-0.4,1.2c0.1,0.4,0.3,0.7,0.7,0.9s0.9,0.5,1.5,0.7c0.6,0.2,1.2,0.5,1.8,0.8
		c0.6,0.3,1.2,0.6,1.8,1.1c0.5,0.4,1,1,1.3,1.6c0.3,0.7,0.5,1.5,0.5,2.5c0,0.4-0.1,1-0.3,1.6c-0.2,0.6-0.5,1.3-0.9,1.9
		c-0.4,0.6-1.1,1.1-1.9,1.5c-0.8,0.4-1.8,0.6-3.1,0.6c-1.2,0-2.3-0.2-3.4-0.6c-1.1-0.4-1.9-0.9-2.6-1.6c0.4-0.5,0.8-1,1.2-1.5
		c0.4-0.5,0.8-1,1.2-1.5c0.7,0.4,1.3,0.8,1.8,1c0.5,0.2,1.1,0.3,1.9,0.3c0,0,0.1,0,0.4,0c0.2,0,0.4-0.1,0.7-0.2
		c0.3-0.1,0.5-0.3,0.7-0.5c0.2-0.2,0.3-0.6,0.4-1c0-0.6-0.1-1-0.5-1.3c-0.4-0.3-0.8-0.6-1.4-0.8c-0.6-0.2-1.2-0.4-1.8-0.6
		c-0.7-0.2-1.3-0.5-1.9-0.9c-0.6-0.4-1.1-0.9-1.5-1.6c-0.4-0.7-0.6-1.6-0.6-2.7c0-1,0.2-1.8,0.6-2.5c0.4-0.7,0.9-1.2,1.4-1.6
		c0.6-0.4,1.2-0.7,1.9-0.9c0.7-0.2,1.3-0.3,1.8-0.3c0.3,0,0.7,0,1.2,0.1c0.5,0.1,0.9,0.2,1.4,0.3c0.5,0.2,0.9,0.4,1.4,0.6
		C82.6,32.9,83,33.2,83.3,33.6z"/>
	<path class="st1" d="M107.7,41c0,1.3-0.2,2.5-0.7,3.6c-0.5,1.1-1.2,2.1-2,3c-0.9,0.9-1.9,1.5-3.1,2c-1.2,0.5-2.4,0.7-3.8,0.7
		c-1,0-1.8-0.1-2.6-0.3c-0.7-0.2-1.4-0.5-1.9-0.7c-0.5-0.3-0.9-0.5-1.2-0.8C92.1,48.2,92,48.1,92,48c0.1,0.2,0.1,0.3,0.2,0.5
		c0.1,0.2,0.2,0.4,0.2,0.5v12.8h-4V32h3.3c0,0.4,0,0.8,0.1,1.1s0.1,0.7,0.1,1.1c0-0.1,0.2-0.3,0.5-0.6c0.3-0.3,0.7-0.6,1.3-0.9
		c0.5-0.3,1.2-0.6,1.9-0.8s1.5-0.4,2.4-0.4c1.3,0,2.6,0.2,3.8,0.7c1.2,0.5,2.2,1.2,3.1,2c0.9,0.9,1.5,1.9,2,3
		C107.4,38.5,107.7,39.7,107.7,41z M103.6,41c0-1.6-0.5-2.9-1.6-3.9c-1-1-2.4-1.6-4-1.6s-3,0.5-4,1.6c-1,1-1.6,2.3-1.6,3.9
		c0,1.6,0.5,2.9,1.6,3.9c1,1.1,2.4,1.6,4,1.6s3-0.5,4-1.6C103.1,43.8,103.6,42.5,103.6,41z"/>
	<path class="st1" d="M138.2,20.4h4v11.2h4.7v3.9h-4.7v14.5h-4V35.5h-4v-3.9h4V20.4z"/>
	<g>
		<path class="st1" d="M111.4,4.5l-3-2.2c-9.1,3.1-17,9.4-22,18.4l4,2.1c4.3-7.9,11.3-13.4,19.2-16.2L111.4,4.5z"/>
		<path class="st1" d="M115.1,0.5l2.8,2.6l-2,1.8c8.3-1.4,17.1,0.2,24.6,5.1l2.5-3.8C134.4,0.8,124.5-1,115.1,0.5z"/>
		<path class="st1" d="M110.3,15.2l1.4-2.6c-6.5,2.2-12.2,6.8-15.7,13.2l4,2.1c3-5.5,7.9-9.3,13.4-11.1L110.3,15.2z"/>
		<path class="st1" d="M117.2,11.1l-0.2,2.4l2.7,1.8c5.1-0.4,10.3,0.8,14.9,3.7l2.5-3.8C131,11.4,123.9,10.1,117.2,11.1z"/>
		<path class="st1" d="M113.6,26.5l3.1-2.7l-1.5-1.3c-4.1,1.4-7.7,4.2-9.9,8.3l4,2.1c1.5-2.6,3.8-4.6,6.3-5.7L113.6,26.5z"/>
		<path class="st1" d="M120.8,21.3l0.5,1.3l-2.7,2.3l1,1.3c2.9-0.5,6.8,0.2,9.3,1.8l2.5-3.8C128.1,22,124.4,21.1,120.8,21.3z"/>
	</g>
	<g>
		<path class="st1" d="M130.5,37.3c-0.5-1.1-1.2-2.1-2-3c-0.9-0.8-1.9-1.5-3.1-2c-1.2-0.5-2.4-0.7-3.7-0.7l1,2.6l-2.3,3.7l3.9,1.7
			l-0.2,3.6l2.1,2.7l-2.2,3.7l0.5,0.3c0.3-0.1,0.6-0.2,0.9-0.3c1.2-0.5,2.2-1.2,3.1-2c0.9-0.9,1.5-1.9,2-3c0.5-1.1,0.7-2.3,0.7-3.7
			C131.2,39.7,131,38.5,130.5,37.3z"/>
		<path class="st1" d="M122.9,49.7l1.4-3.4l-2.3-2.3l-0.4-3.3l-5.3-1.1l2.9-4.7l-1.4-2.5c-1.1,0.5-2.1,1.1-2.9,2
			c-0.9,0.8-1.5,1.8-2,3c-0.5,1.1-0.7,2.4-0.7,3.6c0,1.3,0.2,2.5,0.7,3.7c0.5,1.1,1.2,2.1,2,3c0.9,0.9,1.9,1.5,3,2
			c1.2,0.5,2.4,0.7,3.7,0.7c0.7,0,1.4-0.1,2.1-0.2L122.9,49.7z"/>
	</g>
</g>
</svg>
